<?xml version="1.0" encoding="utf-8"?>
<!-- Generator: Adobe Illustrator 24.1.2, SVG Export Plug-In . SVG Version: 6.00 Build 0)  -->
<svg version="1.1" id="Layer_1" xmlns="http://www.w3.org/2000/svg" xmlns:xlink="http://www.w3.org/1999/xlink" x="0px" y="0px"
	 viewBox="0 0 202.4 202.5" style="enable-background:new 0 0 202.4 202.5;" xml:space="preserve">
<style type="text/css">
	.st0{fill:#006580;}
	.st1{fill:#00BED5;}
</style>
<g>
	<path class="st0" d="M184.6,0H17.9C8.1,0,0,8.1,0,17.9v166.6c0,9.9,8.1,17.9,17.9,17.9h67.6c55.6-17.2,99.6-61,117-116.6v-68
		C202.5,8.1,194.4,0,184.6,0z M169,73.9c0,25.4-20.6,46-46,46H65.6v60.7H33.5v-60.7l0,0V87.8h90.6c7.9,0,14.3-6.4,14.3-14.3
		s-6.4-14.3-14.3-14.3H54.7L43.1,27.8H123C148.4,27.8,169,48.4,169,73.9L169,73.9z"/>
	<path class="st1" d="M123.3,202.5h61.2c9.9,0,17.9-8.1,17.9-17.9v-61.1C184.5,157,156.9,184.6,123.3,202.5z"/>
</g>
</svg>
